# xmcd CD database file
#
# Track frame offsets:
#	150
#	5260
#	25489
#	43239
#	57907
#	71077
#	85682
#	100437
#	116043
#	134847
#	157854
#	176980
#	197660
#	218445
#	233816
#
# Disc length: 3316 seconds
#
# Revision: 2
# Processed by: cddbd v1.5.2PL0 Copyright (c) Steve Scherf et al.
# Submitted via: CDex 1.77
#
DISCID=d30cf20f
DTITLE=Various Artist - Siesta XIV - Boys and Girls - CD1
DYEAR=2018
DGENRE=Blues
TTITLE0=Marcin Kydrynski - Siesta Theme
TTITLE1=Jimmy Rushing - I Left My Baby
TTITLE2=Jimmy Witherspoon - I'd Rather Drink Muddy Water
TTITLE3=Sidney Bechet and Claude Luter  Et Son Orchestra - Bechet's Creole Blues
TTITLE4=Ray Charles - Hard Times (No One Knows Better Than I)
TTITLE5=Billy Eckstine - I Gotta Right To Sing The Blues
TTITLE6=Arthur Prysock - Do Nothin' Till You Hear From Me
TTITLE7=Earl Warren - Moon Nocturne
TTITLE8=Johnny Hartman - Don't You Know I Care
TTITLE9=Duke Ellington and OzziebBailey - Autmun Leaves
TTITLE10=Nat King Cole - You're Looking At Me
TTITLE11=Gregory Porter - The Lonely One
TTITLE12=Branford Marsalis and Kurt Elling - Blue Gardenia
TTITLE13=Jose James - Tenderly
TTITLE14=Johnny Hodges - Tenderly
EXTD=YEAR: 2018
EXTT0=
EXTT1=
EXTT2=
EXTT3=
EXTT4=
EXTT5=
EXTT6=
EXTT7=
EXTT8=
EXTT9=
EXTT10=
EXTT11=
EXTT12=
EXTT13=
EXTT14=
PLAYORDER=
